HIERARCHY
ROOT Hips
{
	OFFSET 0.000000 0.000000 0.000000
	CHANNELS 6 Xposition Yposition Zposition Zrotation Xrotation Yrotation
	JOINT Spine1
	{
		OFFSET 0.000000 25.547913 0.000016
		CHANNELS 6 Xposition Yposition Zposition Zrotation Xrotation Yrotation
		JOINT Neck
		{
			OFFSET 0.000000 20.367699 0.000015
			CHANNELS 6 Xposition Yposition Zposition Zrotation Xrotation Yrotation
			JOINT Head
			{
				OFFSET 0.000000 12.950657 1.671054
				CHANNELS 6 Xposition Yposition Zposition Zrotation Xrotation Yrotation
				End Site
				{
					OFFSET 0.000000 16.710468 0.000015
				}
			}
		}
		JOINT LeftShoulder
		{
			OFFSET 3.365056 16.445827 -0.441705
			CHANNELS 6 Xposition Yposition Zposition Zrotation Xrotation Yrotation
			JOINT LeftArm
			{
				OFFSET 12.007472 0.000000 0.000000
				CHANNELS 6 Xposition Yposition Zposition Zrotation Xrotation Yrotation
				JOINT LeftForeArm
				{
					OFFSET 23.544727 0.000000 0.000000
					CHANNELS 6 Xposition Yposition Zposition Zrotation Xrotation Yrotation
					JOINT LeftHand
					{
						OFFSET 21.881741 0.000000 0.000000
						CHANNELS 6 Xposition Yposition Zposition Zrotation Xrotation Yrotation
						End Site
						{
							OFFSET 12.532852 0.000000 0.000000
						}
					}
				}
			}
		}
		JOINT RightShoulder
		{
			OFFSET -3.318632 16.445827 -0.441705
			CHANNELS 6 Xposition Yposition Zposition Zrotation Xrotation Yrotation
			JOINT RightArm
			{
				OFFSET -12.007472 0.000000 0.000000
				CHANNELS 6 Xposition Yposition Zposition Zrotation Xrotation Yrotation
				JOINT RightForeArm
				{
					OFFSET -23.544727 0.000000 0.000000
					CHANNELS 6 Xposition Yposition Zposition Zrotation Xrotation Yrotation
					JOINT RightHand
					{
						OFFSET -21.881752 0.000000 0.000000
						CHANNELS 6 Xposition Yposition Zposition Zrotation Xrotation Yrotation
						End Site
						{
							OFFSET -12.532856 0.000000 0.000000
						}
					}
				}
			}
		}
	}
	JOINT LeftUpLeg
	{
		OFFSET 8.355256 0.000000 0.000000
		CHANNELS 6 Xposition Yposition Zposition Zrotation Xrotation Yrotation
		JOINT LeftLeg
		{
			OFFSET 0.000000 -35.139305 -0.000022
			CHANNELS 6 Xposition Yposition Zposition Zrotation Xrotation Yrotation
			JOINT LeftFoot
			{
				OFFSET 0.000000 -36.839561 -0.000022
				CHANNELS 6 Xposition Yposition Zposition Zrotation Xrotation Yrotation
				JOINT LeftToeBase
				{
					OFFSET 0.000000 -5.430923 12.532883
					CHANNELS 6 Xposition Yposition Zposition Zrotation Xrotation Yrotation
					End Site
					{
						OFFSET 0.000000 0.000000 3.342092
					}
				}
			}
		}
	}
	JOINT RightUpLeg
	{
		OFFSET -8.355256 0.000000 0.000000
		CHANNELS 6 Xposition Yposition Zposition Zrotation Xrotation Yrotation
		JOINT RightLeg
		{
			OFFSET 0.000000 -35.139305 -0.000022
			CHANNELS 6 Xposition Yposition Zposition Zrotation Xrotation Yrotation
			JOINT RightFoot
			{
				OFFSET 0.000000 -36.839561 -0.000022
				CHANNELS 6 Xposition Yposition Zposition Zrotation Xrotation Yrotation
				JOINT RightToeBase
				{
					OFFSET 0.000000 -5.430923 12.532883
					CHANNELS 6 Xposition Yposition Zposition Zrotation Xrotation Yrotation
					End Site
					{
						OFFSET 0.000000 0.000000 3.342092
					}
				}
			}
		}
	}
}
MOTION
Frames: 4
Frame Time: 0.016667
-6.592140 66.083344 12.065606 1.314477 16.834425 -0.975737 0.000000 25.547894 0.000034 3.894676 -14.288751 -3.288375 -0.000001 20.367691 0.000017 2.823477 5.533613 3.778433 -0.000003 12.950656 1.671056 -4.774710 1.981065 5.113859 3.365049 16.445826 -0.441708 22.226795 -6.273536 2.739631 12.007481 0.000031 0.000008 -10.161441 -8.947707 -9.973471 23.544727 0.000009 -0.000002 -0.396387 -9.994265 0.122503 21.881729 -0.000002 0.000004 3.271438 -9.503235 17.299756 -3.318632 16.445814 -0.441707 -16.564443 0.745819 -7.597317 -12.007468 0.000045 0.000001 6.743406 15.916825 16.614951 -23.544718 -0.000005 0.000005 -45.834230 -36.343580 85.037153 -21.881756 0.000017 -0.000014 -34.683400 5.811159 6.351993 8.355257 -0.000013 0.000006 35.541777 -28.022369 31.782253 -0.000011 -35.139294 -0.000019 -22.262284 37.186753 22.638303 -0.000012 -36.839561 -0.000022 -5.403330 -6.027548 18.024125 -0.000002 -5.430915 12.532870 0.000004 -0.000004 -0.000000 -8.355255 0.000006 -0.000001 -38.991996 -28.244818 -10.484851 0.000001 -35.139317 -0.000017 40.858120 26.571386 -34.432893 0.000010 -36.839554 -0.000028 6.049055 -17.682419 -23.525948 0.000004 -5.430923 12.532882 -0.000000 0.000002 0.000007 
-6.592932 66.079567 12.066074 1.310561 16.836360 -0.970085 0.000000 25.547895 0.000016 3.889053 -14.285033 -3.290992 0.000000 20.367718 0.000019 2.822450 5.540742 3.782593 0.000000 12.950665 1.671061 -4.754745 1.964620 5.114565 3.365052 16.445854 -0.441706 22.232252 -6.268605 2.738357 12.007476 0.000009 0.000002 -10.170772 -8.927851 -9.966651 23.544727 0.000040 -0.000001 -0.388811 -10.005583 0.107984 21.881723 0.000018 0.000014 3.255974 -9.516672 17.309192 -3.318628 16.445812 -0.441694 -16.561421 0.738853 -7.597954 -12.007471 -0.000007 0.000001 6.774063 15.857935 16.611508 -23.544724 -0.000024 0.000012 -45.771922 -36.305963 85.106104 -21.881754 0.000007 -0.000000 -34.663360 5.833312 6.381669 8.355256 -0.000003 -0.000001 35.544202 -28.032158 31.776396 0.000003 -35.139305 -0.000023 -22.256489 37.199573 22.634023 0.000000 -36.839558 -0.000018 -5.422515 -6.047559 18.017974 -0.000001 -5.430923 12.532871 0.000004 -0.000002 -0.000004 -8.355255 -0.000009 -0.000001 -38.986450 -28.246830 -10.532833 -0.000004 -35.139305 -0.000022 40.832975 26.613456 -34.403014 0.000010 -36.839569 -0.000035 6.046549 -17.697208 -23.499112 0.000005 -5.430924 12.532879 -0.000000 0.000003 0.000001 
-6.595240 66.078766 12.063978 1.304896 16.840489 -0.969728 0.000001 25.547886 0.000020 3.893725 -14.283800 -3.294159 -0.000001 20.367722 0.000016 2.749785 5.574327 3.790199 0.000002 12.950649 1.671050 -4.623992 1.892915 5.088111 3.365050 16.445866 -0.441708 22.227556 -6.275888 2.731607 12.007482 0.000034 -0.000002 -10.181366 -8.868231 -9.943898 23.544739 0.000031 -0.000011 -0.371036 -10.066060 0.079708 21.881718 -0.000043 -0.000014 3.317154 -9.568094 17.311097 -3.318633 16.445822 -0.441705 -16.592158 0.726562 -7.585957 -12.007467 0.000016 0.000006 6.841311 15.825704 16.595365 -23.544733 -0.000012 0.000018 -45.731842 -36.275678 85.158327 -21.881756 -0.000018 0.000006 -34.668596 5.862786 6.395500 8.355257 -0.000026 0.000000 35.554270 -28.040107 31.775946 0.000002 -35.139290 -0.000025 -22.258413 37.201786 22.649684 -0.000013 -36.839577 -0.000021 -5.447412 -6.068077 18.006172 -0.000001 -5.430923 12.532875 0.000000 -0.000005 0.000002 -8.355257 -0.000031 0.000005 -38.992286 -28.249393 -10.505940 0.000001 -35.139313 -0.000024 40.869946 26.580569 -34.426141 0.000007 -36.839569 -0.000022 5.990578 -17.684564 -23.537032 0.000002 -5.430914 12.532864 0.000001 -0.000008 -0.000009 
-6.599840 66.077713 12.062614 1.296548 16.842803 -0.961402 -0.000000 25.547888 0.000020 3.898880 -14.285701 -3.304619 -0.000000 20.367699 0.000021 2.736865 5.588358 3.794938 0.000002 12.950667 1.671069 -4.602117 1.879347 5.087269 3.365049 16.445841 -0.441705 22.222871 -6.272599 2.731603 12.007482 -0.000001 0.000000 -10.191722 -8.822368 -9.944960 23.544729 -0.000011 -0.000006 -0.359604 -10.104164 0.074190 21.881746 -0.000007 -0.000002 3.342068 -9.601848 17.334306 -3.318634 16.445835 -0.441701 -16.574801 0.738443 -7.588741 -12.007474 0.000019 0.000004 6.816490 15.820820 16.609159 -23.544722 -0.000009 0.000005 -45.750844 -36.285783 85.124347 -21.881758 0.000007 -0.000004 -34.660427 5.846190 6.388677 8.355255 -0.000015 -0.000002 35.565106 -28.049046 31.764655 0.000005 -35.139294 -0.000027 -22.263003 37.203928 22.653178 0.000001 -36.839558 -0.000021 -5.407776 -6.041869 18.024526 -0.000004 -5.430923 12.532887 0.000002 -0.000001 -0.000012 -8.355257 -0.000023 -0.000000 -38.990569 -28.242277 -10.522627 0.000005 -35.139309 -0.000027 40.884621 26.569405 -34.431472 0.000010 -36.839577 -0.000033 6.022402 -17.700085 -23.536542 -0.000003 -5.430924 12.532879 0.000001 0.000002 0.000007 
